<?xml version="1.0" encoding="UTF-8"?>
<svg xmlns="http://www.w3.org/2000/svg" viewBox="0 0 24 24">
  <!-- Ãcone simplificado para exibir bem em 16x16/24x24 -->
  <title>Whale</title>
  <path fill="#646cff" d="M20.5 9c.97 0 1.75-.78 1.75-1.75S21.47 5.5 20.5 5.5c-.6 0-1.15.3-1.47.77-.77-1.45-2.25-2.27-3.9-2.27-2.49 0-4.5 2.02-4.5 4.5 0 .2.02.41.05.61-1.84-.74-3.9-1.16-6.18-1.16C2.04 7.95 0 9.99 0 12.52c0 3.73 3.74 6.23 8.93 6.23 5.13 0 8.74-2.55 9.57-6.19l.31-1.38c.03-.16.05-.33.06-.5.03-.49.06-.98.06-1.48zM8.75 14.5c.97 0 1.75-.78 1.75-1.75s-.78-1.75-1.75-1.75-1.75.78-1.75 1.75.78 1.75 1.75 1.75z"/>
  <circle cx="15.3" cy="8.7" r=".7" fill="#fff"/>
</svg>